<svg width="937" height="937" viewBox="0 0 937 937" fill="none" xmlns="http://www.w3.org/2000/svg">
<g filter="url(#filter0_b_5_337)">
<rect width="937" height="937" fill="black"/>
<path d="M422.171 275.887L144.969 586.564" stroke="#CFD8DD" stroke-width="14.182"/>
<path d="M726.078 341.332L144.969 586.564" stroke="#CFD8DD" stroke-width="14.182"/>
<path d="M426.309 665.174L144.217 586.941" stroke="#CFD8DD" stroke-width="14.182"/>
<path d="M429.695 272.877L339.049 508.706" stroke="#CFD8DD" stroke-width="14.182"/>
<path d="M440.227 659.156L340.931 505.698" stroke="#CFD8DD" stroke-width="14.182"/>
<path d="M428.942 262.723L726.831 319.141" stroke="#CFD8DD" stroke-width="14.182"/>
<path d="M428.191 259.337L703.136 478.992" stroke="#CFD8DD" stroke-width="14.182"/>
<path d="M747.143 363.523L702.384 480.121" stroke="#CFD8DD" stroke-width="14.182"/>
<path d="M433.083 256.705L448.128 674.953" stroke="#CFD8DD" stroke-width="14.182"/>
<path d="M736.986 352.24L446.243 673.825" stroke="#CFD8DD" stroke-width="14.182"/>
<path d="M683.577 494.038L459.408 662.917" stroke="#CFD8DD" stroke-width="14.182"/>
<circle cx="765.571" cy="325.535" r="58.299" fill="#FFC107"/>
<circle cx="447.558" cy="663.857" r="43.4421" fill="#2196F4"/>
<circle cx="433.646" cy="261.406" r="31.4062" fill="#F34335"/>
<circle cx="339.617" cy="504.005" r="31.4062" fill="#9C27AF"/>
<circle cx="144.406" cy="587.88" r="31.4062" fill="#F34335"/>
<circle cx="702.947" cy="484.071" r="31.4062" fill="#8BC349"/>
<rect x="0.5" y="0.5" width="936" height="936" stroke="black"/>
</g>
<defs>
<filter id="filter0_b_5_337" x="-4" y="-4" width="945" height="945" filterUnits="userSpaceOnUse" color-interpolation-filters="sRGB">
<feFlood flood-opacity="0" result="BackgroundImageFix"/>
<feGaussianBlur in="BackgroundImage" stdDeviation="2"/>
<feComposite in2="SourceAlpha" operator="in" result="effect1_backgroundBlur_5_337"/>
<feBlend mode="normal" in="SourceGraphic" in2="effect1_backgroundBlur_5_337" result="shape"/>
</filter>
</defs>
</svg>
