<svg width="937" height="937" viewBox="0 0 937 937" fill="none" xmlns="http://www.w3.org/2000/svg">
<g filter="url(#filter0_b_1103_578)">
<rect width="937" height="937" rx="468.5" fill="white"/>
<path d="M421.69 250.59L105.727 604.708" stroke="black" stroke-width="15"/>
<path d="M768.091 325.184L105.727 604.706" stroke="black" stroke-width="15"/>
<path d="M426.396 694.309L104.859 605.137" stroke="black" stroke-width="15"/>
<path d="M430.258 247.16L326.938 515.965" stroke="black" stroke-width="15"/>
<path d="M442.267 687.456L329.086 512.539" stroke="black" stroke-width="15"/>
<path d="M429.414 235.59L768.956 299.897" stroke="black" stroke-width="15"/>
<path d="M428.555 231.727L741.945 482.096" stroke="black" stroke-width="15"/>
<path d="M792.103 350.48L741.086 483.383" stroke="black" stroke-width="15"/>
<path d="M434.133 228.723L451.281 705.454" stroke="black" stroke-width="15"/>
<path d="M780.514 337.617L449.117 704.169" stroke="black" stroke-width="15"/>
<path d="M719.647 499.242L464.133 691.735" stroke="black" stroke-width="15"/>
<circle cx="812.642" cy="307.517" r="77.5478" fill="#FFC107"/>
<circle cx="450.432" cy="694.272" r="68.7132" fill="#2196F4"/>
<circle cx="434.717" cy="233.897" r="58.897" fill="#F34335"/>
<circle cx="434" cy="232" r="75" fill="#F34335"/>
<circle cx="326.741" cy="510.71" r="58.897" fill="#9C27AF"/>
<circle cx="104.897" cy="604.948" r="58.897" fill="#F34335"/>
<circle cx="741.96" cy="488.131" r="58.897" fill="#8BC349"/>
</g>
<defs>
<filter id="filter0_b_1103_578" x="-4" y="-4" width="945" height="945" filterUnits="userSpaceOnUse" color-interpolation-filters="sRGB">
<feFlood flood-opacity="0" result="BackgroundImageFix"/>
<feGaussianBlur in="BackgroundImageFix" stdDeviation="2"/>
<feComposite in2="SourceAlpha" operator="in" result="effect1_backgroundBlur_1103_578"/>
<feBlend mode="normal" in="SourceGraphic" in2="effect1_backgroundBlur_1103_578" result="shape"/>
</filter>
</defs>
</svg>
