<svg width="2080" height="478" viewBox="0 0 2080 478" fill="none" xmlns="http://www.w3.org/2000/svg">
<g filter="url(#filter0_b_5_22)">
<path d="M309.171 45.8872L31.9685 356.564" stroke="black" stroke-width="14.182"/>
<path d="M613.078 111.332L31.9685 356.564" stroke="black" stroke-width="14.182"/>
<path d="M313.309 435.174L31.2169 356.941" stroke="black" stroke-width="14.182"/>
<path d="M316.695 42.8772L226.049 278.706" stroke="black" stroke-width="14.182"/>
<path d="M327.227 429.156L227.931 275.698" stroke="black" stroke-width="14.182"/>
<path d="M315.942 32.7227L613.831 89.141" stroke="black" stroke-width="14.182"/>
<path d="M315.191 29.3369L590.136 248.992" stroke="black" stroke-width="14.182"/>
<path d="M634.143 133.523L589.384 250.121" stroke="black" stroke-width="14.182"/>
<path d="M320.083 26.7051L335.128 444.953" stroke="black" stroke-width="14.182"/>
<path d="M623.986 122.24L333.243 443.825" stroke="black" stroke-width="14.182"/>
<path d="M570.577 264.038L346.408 432.917" stroke="black" stroke-width="14.182"/>
<circle cx="652.571" cy="95.5346" r="58.299" fill="#FFC107"/>
<circle cx="334.558" cy="433.857" r="43.4421" fill="#2196F4"/>
<circle cx="320.646" cy="31.4062" r="31.4062" fill="#F34335"/>
<circle cx="226.617" cy="274.005" r="31.4062" fill="#9C27AF"/>
<circle cx="31.4062" cy="357.88" r="31.4062" fill="#F34335"/>
<circle cx="589.947" cy="254.071" r="31.4062" fill="#8BC349"/>
<path d="M932.919 204L932.707 114.654L888.884 188.258H873.355L829.745 116.568V204H797.41V55.0893H825.916L881.651 147.627L936.536 55.0893H964.829L965.254 204H932.919ZM1115.88 176.345V204H1000.58V55.0893H1113.12V82.7441H1034.83V115.079H1103.97V141.883H1034.83V176.345H1115.88ZM1192.23 206.553C1180.46 206.553 1169.04 204.993 1157.98 201.873C1147.06 198.611 1138.27 194.427 1131.6 189.322L1143.3 163.369C1149.69 168.049 1157.27 171.807 1166.07 174.643C1174.86 177.48 1183.65 178.898 1192.44 178.898C1202.23 178.898 1209.46 177.48 1214.14 174.643C1218.82 171.665 1221.16 167.765 1221.16 162.943C1221.16 159.398 1219.74 156.49 1216.91 154.221C1214.21 151.81 1210.67 149.896 1206.27 148.478C1202.02 147.059 1196.2 145.499 1188.83 143.798C1177.48 141.103 1168.19 138.408 1160.96 135.714C1153.73 133.019 1147.49 128.694 1142.24 122.737C1137.13 116.781 1134.58 108.839 1134.58 98.9116C1134.58 90.2606 1136.92 82.4605 1141.6 75.5113C1146.28 68.4203 1153.3 62.8184 1162.66 58.7057C1172.16 54.5929 1183.72 52.5365 1197.34 52.5365C1206.84 52.5365 1216.13 53.6711 1225.2 55.9402C1234.28 58.2093 1242.22 61.4712 1249.03 65.7257L1238.39 91.8915C1224.64 84.0914 1210.88 80.1914 1197.12 80.1914C1187.48 80.1914 1180.32 81.7514 1175.64 84.8714C1171.1 87.9914 1168.83 92.1042 1168.83 97.2097C1168.83 102.315 1171.46 106.144 1176.7 108.697C1182.09 111.108 1190.25 113.519 1201.17 115.93C1212.51 118.625 1221.8 121.319 1229.03 124.014C1236.27 126.708 1242.44 130.963 1247.54 136.777C1252.79 142.592 1255.41 150.463 1255.41 160.39C1255.41 168.9 1253 176.7 1248.18 183.791C1243.5 190.74 1236.41 196.271 1226.91 200.384C1217.4 204.496 1205.85 206.553 1192.23 206.553ZM1351.08 206.553C1335.62 206.553 1321.65 203.22 1309.17 196.554C1296.83 189.889 1287.12 180.742 1280.02 169.112C1273.07 157.341 1269.6 144.152 1269.6 129.545C1269.6 114.937 1273.07 101.819 1280.02 90.1897C1287.12 78.4186 1296.83 69.2003 1309.17 62.5348C1321.65 55.8693 1335.62 52.5365 1351.08 52.5365C1366.53 52.5365 1380.43 55.8693 1392.77 62.5348C1405.11 69.2003 1414.82 78.4186 1421.91 90.1897C1429.01 101.819 1432.55 114.937 1432.55 129.545C1432.55 144.152 1429.01 157.341 1421.91 169.112C1414.82 180.742 1405.11 189.889 1392.77 196.554C1380.43 203.22 1366.53 206.553 1351.08 206.553ZM1351.08 177.196C1359.87 177.196 1367.81 175.211 1374.9 171.24C1381.99 167.127 1387.52 161.454 1391.49 154.221C1395.61 146.988 1397.66 138.763 1397.66 129.545C1397.66 120.326 1395.61 112.101 1391.49 104.868C1387.52 97.6352 1381.99 92.0333 1374.9 88.0624C1367.81 83.9496 1359.87 81.8932 1351.08 81.8932C1342.28 81.8932 1334.34 83.9496 1327.25 88.0624C1320.16 92.0333 1314.56 97.6352 1310.44 104.868C1306.47 112.101 1304.49 120.326 1304.49 129.545C1304.49 138.763 1306.47 146.988 1310.44 154.221C1314.56 161.454 1320.16 167.127 1327.25 171.24C1334.34 175.211 1342.28 177.196 1351.08 177.196ZM1595.02 55.0893V204H1566.73L1492.49 113.59V204H1458.45V55.0893H1486.96L1560.99 145.499V55.0893H1595.02ZM1640.47 205.702C1634.65 205.702 1629.76 203.716 1625.79 199.745C1621.82 195.774 1619.83 190.811 1619.83 184.854C1619.83 178.756 1621.82 173.863 1625.79 170.176C1629.76 166.347 1634.65 164.432 1640.47 164.432C1646.28 164.432 1651.17 166.347 1655.14 170.176C1659.12 173.863 1661.1 178.756 1661.1 184.854C1661.1 190.811 1659.12 195.774 1655.14 199.745C1651.17 203.716 1646.28 205.702 1640.47 205.702ZM933.983 278.089V427H905.69L831.447 336.59V427H797.41V278.089H825.916L899.946 368.499V278.089H933.983ZM1084.51 399.345V427H969.215V278.089H1081.75V305.744H1003.46V338.079H1072.6V364.883H1003.46V399.345H1084.51ZM1142.78 306.17H1095.13V278.089H1224.89V306.17H1177.24V427H1142.78V306.17ZM1465.8 278.089L1417.09 427H1380.07L1347.31 326.166L1313.49 427H1276.69L1227.76 278.089H1263.5L1297.11 382.752L1332.21 278.089H1364.12L1398.16 383.603L1432.83 278.089H1465.8ZM1555.29 429.553C1539.83 429.553 1525.86 426.22 1513.38 419.554C1501.04 412.889 1491.33 403.742 1484.24 392.112C1477.29 380.341 1473.81 367.152 1473.81 352.545C1473.81 337.937 1477.29 324.819 1484.24 313.19C1491.33 301.419 1501.04 292.2 1513.38 285.535C1525.86 278.869 1539.83 275.537 1555.29 275.537C1570.75 275.537 1584.64 278.869 1596.98 285.535C1609.32 292.2 1619.04 301.419 1626.13 313.19C1633.22 324.819 1636.76 337.937 1636.76 352.545C1636.76 367.152 1633.22 380.341 1626.13 392.112C1619.04 403.742 1609.32 412.889 1596.98 419.554C1584.64 426.22 1570.75 429.553 1555.29 429.553ZM1555.29 400.196C1564.08 400.196 1572.02 398.211 1579.11 394.24C1586.2 390.127 1591.74 384.454 1595.71 377.221C1599.82 369.988 1601.88 361.763 1601.88 352.545C1601.88 343.326 1599.82 335.101 1595.71 327.868C1591.74 320.635 1586.2 315.033 1579.11 311.062C1572.02 306.95 1564.08 304.893 1555.29 304.893C1546.5 304.893 1538.55 306.95 1531.46 311.062C1524.37 315.033 1518.77 320.635 1514.66 327.868C1510.69 335.101 1508.7 343.326 1508.7 352.545C1508.7 361.763 1510.69 369.988 1514.66 377.221C1518.77 384.454 1524.37 390.127 1531.46 394.24C1538.55 398.211 1546.5 400.196 1555.29 400.196ZM1757.54 427L1728.82 385.518H1727.12H1697.13V427H1662.66V278.089H1727.12C1740.31 278.089 1751.73 280.287 1761.37 284.684C1771.16 289.08 1778.67 295.32 1783.92 303.404C1789.17 311.488 1791.79 321.061 1791.79 332.123C1791.79 343.185 1789.1 352.757 1783.71 360.841C1778.46 368.783 1770.94 374.881 1761.16 379.136L1794.56 427H1757.54ZM1756.9 332.123C1756.9 323.755 1754.21 317.373 1748.82 312.977C1743.43 308.439 1735.56 306.17 1725.21 306.17H1697.13V358.076H1725.21C1735.56 358.076 1743.43 355.806 1748.82 351.268C1754.21 346.73 1756.9 340.348 1756.9 332.123ZM1873.34 368.499L1853.34 389.347V427H1819.09V278.089H1853.34V347.652L1919.29 278.089H1957.58L1895.89 344.461L1961.2 427H1920.99L1873.34 368.499Z" fill="black"/>
</g>
<defs>
<filter id="filter0_b_5_22" x="-4" y="-4" width="1969.2" height="485.299" filterUnits="userSpaceOnUse" color-interpolation-filters="sRGB">
<feFlood flood-opacity="0" result="BackgroundImageFix"/>
<feGaussianBlur in="BackgroundImage" stdDeviation="2"/>
<feComposite in2="SourceAlpha" operator="in" result="effect1_backgroundBlur_5_22"/>
<feBlend mode="normal" in="SourceGraphic" in2="effect1_backgroundBlur_5_22" result="shape"/>
</filter>
</defs>
</svg>
