<svg width="2131" height="478" viewBox="0 0 2131 478" fill="none" xmlns="http://www.w3.org/2000/svg">
<g filter="url(#filter0_b_5_2)">
<path d="M309.171 46.1863L31.9685 356.863" stroke="#CFD8DD" stroke-width="14.182"/>
<path d="M613.078 111.631L31.9685 356.863" stroke="#CFD8DD" stroke-width="14.182"/>
<path d="M313.309 435.473L31.2169 357.24" stroke="#CFD8DD" stroke-width="14.182"/>
<path d="M316.695 43.1763L226.049 279.005" stroke="#CFD8DD" stroke-width="14.182"/>
<path d="M327.227 429.455L227.931 275.997" stroke="#CFD8DD" stroke-width="14.182"/>
<path d="M315.942 33.0217L613.831 89.4401" stroke="#CFD8DD" stroke-width="14.182"/>
<path d="M315.191 29.636L590.136 249.292" stroke="#CFD8DD" stroke-width="14.182"/>
<path d="M634.143 133.822L589.384 250.42" stroke="#CFD8DD" stroke-width="14.182"/>
<path d="M320.083 27.0042L335.128 445.252" stroke="#CFD8DD" stroke-width="14.182"/>
<path d="M623.986 122.539L333.243 444.124" stroke="#CFD8DD" stroke-width="14.182"/>
<path d="M570.577 264.337L346.408 433.216" stroke="#CFD8DD" stroke-width="14.182"/>
<circle cx="652.571" cy="95.8336" r="58.299" fill="#FFC107"/>
<circle cx="334.558" cy="434.156" r="43.4421" fill="#2196F4"/>
<circle cx="320.646" cy="31.7053" r="31.4062" fill="#F34335"/>
<circle cx="226.617" cy="274.304" r="31.4062" fill="#9C27AF"/>
<circle cx="31.4062" cy="358.179" r="31.4062" fill="#F34335"/>
<circle cx="589.947" cy="254.37" r="31.4062" fill="#8BC349"/>
<path d="M983.919 203.589L983.706 114.243L939.884 187.847H924.354L880.745 116.157V203.589H848.41V54.6784H876.916L932.651 147.216L987.535 54.6784H1015.83L1016.25 203.589H983.919ZM1166.88 175.934V203.589H1051.58V54.6784H1164.12V82.3332H1085.83V114.668H1154.97V141.472H1085.83V175.934H1166.88ZM1243.23 206.142C1231.46 206.142 1220.04 204.582 1208.98 201.462C1198.06 198.2 1189.27 194.016 1182.6 188.911L1194.3 162.958C1200.69 167.638 1208.27 171.396 1217.07 174.232C1225.86 177.069 1234.65 178.487 1243.44 178.487C1253.23 178.487 1260.46 177.069 1265.14 174.232C1269.82 171.254 1272.16 167.354 1272.16 162.532C1272.16 158.987 1270.74 156.079 1267.91 153.81C1265.21 151.399 1261.67 149.485 1257.27 148.067C1253.02 146.648 1247.2 145.088 1239.83 143.387C1228.48 140.692 1219.19 137.997 1211.96 135.303C1204.73 132.608 1198.49 128.283 1193.24 122.326C1188.13 116.37 1185.58 108.428 1185.58 98.5007C1185.58 89.8497 1187.92 82.0496 1192.6 75.1004C1197.28 68.0094 1204.3 62.4075 1213.66 58.2948C1223.16 54.182 1234.72 52.1256 1248.34 52.1256C1257.84 52.1256 1267.13 53.2602 1276.2 55.5293C1285.28 57.7984 1293.22 61.0603 1300.03 65.3149L1289.39 91.4806C1275.64 83.6805 1261.88 79.7805 1248.12 79.7805C1238.48 79.7805 1231.32 81.3405 1226.64 84.4605C1222.1 87.5806 1219.83 91.6933 1219.83 96.7988C1219.83 101.904 1222.45 105.733 1227.7 108.286C1233.09 110.697 1241.25 113.108 1252.17 115.519C1263.51 118.214 1272.8 120.908 1280.03 123.603C1287.27 126.297 1293.44 130.552 1298.54 136.367C1303.79 142.181 1306.41 150.052 1306.41 159.98C1306.41 168.489 1304 176.289 1299.18 183.38C1294.5 190.329 1287.41 195.86 1277.91 199.973C1268.4 204.085 1256.85 206.142 1243.23 206.142ZM1402.08 206.142C1386.62 206.142 1372.65 202.809 1360.17 196.144C1347.83 189.478 1338.11 180.331 1331.02 168.701C1324.07 156.93 1320.6 143.741 1320.6 129.134C1320.6 114.526 1324.07 101.408 1331.02 89.7788C1338.11 78.0077 1347.83 68.7894 1360.17 62.1239C1372.65 55.4584 1386.62 52.1256 1402.08 52.1256C1417.53 52.1256 1431.43 55.4584 1443.77 62.1239C1456.11 68.7894 1465.82 78.0077 1472.91 89.7788C1480.01 101.408 1483.55 114.526 1483.55 129.134C1483.55 143.741 1480.01 156.93 1472.91 168.701C1465.82 180.331 1456.11 189.478 1443.77 196.144C1431.43 202.809 1417.53 206.142 1402.08 206.142ZM1402.08 176.785C1410.87 176.785 1418.81 174.8 1425.9 170.829C1432.99 166.716 1438.52 161.043 1442.49 153.81C1446.61 146.578 1448.66 138.352 1448.66 129.134C1448.66 119.915 1446.61 111.69 1442.49 104.457C1438.52 97.2243 1432.99 91.6224 1425.9 87.6515C1418.81 83.5387 1410.87 81.4823 1402.08 81.4823C1393.28 81.4823 1385.34 83.5387 1378.25 87.6515C1371.16 91.6224 1365.56 97.2243 1361.44 104.457C1357.47 111.69 1355.49 119.915 1355.49 129.134C1355.49 138.352 1357.47 146.578 1361.44 153.81C1365.56 161.043 1371.16 166.716 1378.25 170.829C1385.34 174.8 1393.28 176.785 1402.08 176.785ZM1646.02 54.6784V203.589H1617.73L1543.49 113.179V203.589H1509.45V54.6784H1537.96L1611.99 145.088V54.6784H1646.02ZM1691.47 205.291C1685.65 205.291 1680.76 203.305 1676.79 199.335C1672.82 195.364 1670.83 190.4 1670.83 184.443C1670.83 178.345 1672.82 173.452 1676.79 169.765C1680.76 165.936 1685.65 164.021 1691.47 164.021C1697.28 164.021 1702.17 165.936 1706.14 169.765C1710.12 173.452 1712.1 178.345 1712.1 184.443C1712.1 190.4 1710.12 195.364 1706.14 199.335C1702.17 203.305 1697.28 205.291 1691.47 205.291Z" fill="#B6DCEF"/>
<path d="M984.982 277.678V426.589H956.689L882.447 336.179V426.589H848.41V277.678H876.916L950.946 368.088V277.678H984.982ZM1135.51 398.934V426.589H1020.21V277.678H1132.75V305.333H1054.46V337.668H1123.6V364.472H1054.46V398.934H1135.51ZM1193.78 305.759H1146.13V277.678H1275.89V305.759H1228.24V426.589H1193.78V305.759ZM1516.8 277.678L1468.09 426.589H1431.07L1398.31 325.755L1364.49 426.589H1327.69L1278.76 277.678H1314.5L1348.11 382.341L1383.21 277.678H1415.12L1449.16 383.192L1483.83 277.678H1516.8ZM1606.29 429.142C1590.83 429.142 1576.86 425.809 1564.38 419.144C1552.04 412.478 1542.33 403.331 1535.24 391.701C1528.29 379.93 1524.81 366.741 1524.81 352.134C1524.81 337.526 1528.29 324.408 1535.24 312.779C1542.33 301.008 1552.04 291.789 1564.38 285.124C1576.86 278.458 1590.83 275.126 1606.29 275.126C1621.75 275.126 1635.64 278.458 1647.98 285.124C1660.32 291.789 1670.04 301.008 1677.13 312.779C1684.22 324.408 1687.76 337.526 1687.76 352.134C1687.76 366.741 1684.22 379.93 1677.13 391.701C1670.04 403.331 1660.32 412.478 1647.98 419.144C1635.64 425.809 1621.75 429.142 1606.29 429.142ZM1606.29 399.785C1615.08 399.785 1623.02 397.8 1630.11 393.829C1637.2 389.716 1642.74 384.043 1646.71 376.81C1650.82 369.578 1652.88 361.352 1652.88 352.134C1652.88 342.915 1650.82 334.69 1646.71 327.457C1642.74 320.224 1637.2 314.622 1630.11 310.651C1623.02 306.539 1615.08 304.482 1606.29 304.482C1597.49 304.482 1589.55 306.539 1582.46 310.651C1575.37 314.622 1569.77 320.224 1565.66 327.457C1561.69 334.69 1559.7 342.915 1559.7 352.134C1559.7 361.352 1561.69 369.578 1565.66 376.81C1569.77 384.043 1575.37 389.716 1582.46 393.829C1589.55 397.8 1597.49 399.785 1606.29 399.785ZM1808.54 426.589L1779.82 385.107H1778.12H1748.12V426.589H1713.66V277.678H1778.12C1791.31 277.678 1802.73 279.877 1812.37 284.273C1822.15 288.669 1829.67 294.909 1834.92 302.993C1840.17 311.077 1842.79 320.65 1842.79 331.712C1842.79 342.774 1840.1 352.346 1834.71 360.43C1829.46 368.372 1821.94 374.47 1812.16 378.725L1845.56 426.589H1808.54ZM1807.9 331.712C1807.9 323.344 1805.21 316.962 1799.82 312.566C1794.43 308.028 1786.56 305.759 1776.21 305.759H1748.12V357.665H1776.21C1786.56 357.665 1794.43 355.396 1799.82 350.857C1805.21 346.319 1807.9 339.937 1807.9 331.712ZM1924.34 368.088L1904.34 388.936V426.589H1870.09V277.678H1904.34V347.241L1970.29 277.678H2008.58L1946.89 344.05L2012.2 426.589H1971.99L1924.34 368.088Z" fill="white"/>
</g>
<defs>
<filter id="filter0_b_5_2" x="-4" y="-3.70093" width="2020.2" height="485.299" filterUnits="userSpaceOnUse" color-interpolation-filters="sRGB">
<feFlood flood-opacity="0" result="BackgroundImageFix"/>
<feGaussianBlur in="BackgroundImage" stdDeviation="2"/>
<feComposite in2="SourceAlpha" operator="in" result="effect1_backgroundBlur_5_2"/>
<feBlend mode="normal" in="SourceGraphic" in2="effect1_backgroundBlur_5_2" result="shape"/>
</filter>
</defs>
</svg>
