<svg width="2080" height="479" viewBox="0 0 2080 479" fill="none" xmlns="http://www.w3.org/2000/svg">
<g filter="url(#filter0_b_5_42)">
<path d="M309.171 46.7845L31.9685 357.462" stroke="black" stroke-width="14.182"/>
<path d="M613.078 112.23L31.9685 357.461" stroke="black" stroke-width="14.182"/>
<path d="M313.309 436.071L31.2169 357.838" stroke="black" stroke-width="14.182"/>
<path d="M316.695 43.7745L226.049 279.603" stroke="black" stroke-width="14.182"/>
<path d="M327.227 430.053L227.931 276.595" stroke="black" stroke-width="14.182"/>
<path d="M315.942 33.6198L613.831 90.0381" stroke="black" stroke-width="14.182"/>
<path d="M315.191 30.234L590.136 249.89" stroke="black" stroke-width="14.182"/>
<path d="M634.143 134.42L589.384 251.018" stroke="black" stroke-width="14.182"/>
<path d="M320.083 27.6024L335.128 445.851" stroke="black" stroke-width="14.182"/>
<path d="M623.986 123.137L333.243 444.722" stroke="black" stroke-width="14.182"/>
<path d="M570.577 264.935L346.408 433.814" stroke="black" stroke-width="14.182"/>
<circle cx="652.571" cy="96.4318" r="58.299" fill="black"/>
<circle cx="334.558" cy="434.754" r="43.4421" fill="black"/>
<circle cx="320.646" cy="32.3034" r="31.4062" fill="black"/>
<circle cx="226.617" cy="274.902" r="31.4062" fill="black"/>
<circle cx="31.4062" cy="358.777" r="31.4062" fill="black"/>
<circle cx="589.947" cy="254.968" r="31.4062" fill="black"/>
<path d="M932.919 204.897L932.707 115.551L888.884 189.155H873.355L829.745 117.465V204.897H797.41V55.9865H825.916L881.651 148.524L936.536 55.9865H964.829L965.254 204.897H932.919ZM1115.88 177.242V204.897H1000.58V55.9865H1113.12V83.6413H1034.83V115.976H1103.97V142.78H1034.83V177.242H1115.88ZM1192.23 207.45C1180.46 207.45 1169.04 205.89 1157.98 202.77C1147.06 199.508 1138.27 195.324 1131.6 190.219L1143.3 164.266C1149.69 168.946 1157.27 172.704 1166.07 175.541C1174.86 178.377 1183.65 179.795 1192.44 179.795C1202.23 179.795 1209.46 178.377 1214.14 175.541C1218.82 172.562 1221.16 168.662 1221.16 163.84C1221.16 160.295 1219.74 157.388 1216.91 155.118C1214.21 152.708 1210.67 150.793 1206.27 149.375C1202.02 147.957 1196.2 146.397 1188.83 144.695C1177.48 142 1168.19 139.306 1160.96 136.611C1153.73 133.916 1147.49 129.591 1142.24 123.634C1137.13 117.678 1134.58 109.736 1134.58 99.8088C1134.58 91.1578 1136.92 83.3577 1141.6 76.4085C1146.28 69.3175 1153.3 63.7157 1162.66 59.6029C1172.16 55.4901 1183.72 53.4337 1197.34 53.4337C1206.84 53.4337 1216.13 54.5683 1225.2 56.8374C1234.28 59.1065 1242.22 62.3684 1249.03 66.623L1238.39 92.7887C1224.64 84.9886 1210.88 81.0886 1197.12 81.0886C1187.48 81.0886 1180.32 82.6486 1175.64 85.7686C1171.1 88.8887 1168.83 93.0014 1168.83 98.1069C1168.83 103.212 1171.46 107.042 1176.7 109.594C1182.09 112.005 1190.25 114.416 1201.17 116.827C1212.51 119.522 1221.8 122.216 1229.03 124.911C1236.27 127.605 1242.44 131.86 1247.54 137.675C1252.79 143.489 1255.41 151.36 1255.41 161.288C1255.41 169.797 1253 177.597 1248.18 184.688C1243.5 191.637 1236.41 197.168 1226.91 201.281C1217.4 205.394 1205.85 207.45 1192.23 207.45ZM1351.08 207.45C1335.62 207.45 1321.65 204.117 1309.17 197.452C1296.83 190.786 1287.12 181.639 1280.02 170.01C1273.07 158.239 1269.6 145.049 1269.6 130.442C1269.6 115.834 1273.07 102.716 1280.02 91.0869C1287.12 79.3158 1296.83 70.0975 1309.17 63.432C1321.65 56.7665 1335.62 53.4337 1351.08 53.4337C1366.53 53.4337 1380.43 56.7665 1392.77 63.432C1405.11 70.0975 1414.82 79.3158 1421.91 91.0869C1429.01 102.716 1432.55 115.834 1432.55 130.442C1432.55 145.049 1429.01 158.239 1421.91 170.01C1414.82 181.639 1405.11 190.786 1392.77 197.452C1380.43 204.117 1366.53 207.45 1351.08 207.45ZM1351.08 178.093C1359.87 178.093 1367.81 176.108 1374.9 172.137C1381.99 168.024 1387.52 162.351 1391.49 155.118C1395.61 147.886 1397.66 139.66 1397.66 130.442C1397.66 121.224 1395.61 112.998 1391.49 105.765C1387.52 98.5324 1381.99 92.9305 1374.9 88.9596C1367.81 84.8468 1359.87 82.7904 1351.08 82.7904C1342.28 82.7904 1334.34 84.8468 1327.25 88.9596C1320.16 92.9305 1314.56 98.5324 1310.44 105.765C1306.47 112.998 1304.49 121.224 1304.49 130.442C1304.49 139.66 1306.47 147.886 1310.44 155.118C1314.56 162.351 1320.16 168.024 1327.25 172.137C1334.34 176.108 1342.28 178.093 1351.08 178.093ZM1595.02 55.9865V204.897H1566.73L1492.49 114.487V204.897H1458.45V55.9865H1486.96L1560.99 146.397V55.9865H1595.02ZM1640.47 206.599C1634.65 206.599 1629.76 204.614 1625.79 200.643C1621.82 196.672 1619.83 191.708 1619.83 185.752C1619.83 179.653 1621.82 174.761 1625.79 171.073C1629.76 167.244 1634.65 165.33 1640.47 165.33C1646.28 165.33 1651.17 167.244 1655.14 171.073C1659.12 174.761 1661.1 179.653 1661.1 185.752C1661.1 191.708 1659.12 196.672 1655.14 200.643C1651.17 204.614 1646.28 206.599 1640.47 206.599ZM933.983 278.986V427.897H905.69L831.447 337.487V427.897H797.41V278.986H825.916L899.946 369.397V278.986H933.983ZM1084.51 400.242V427.897H969.215V278.986H1081.75V306.641H1003.46V338.976H1072.6V365.78H1003.46V400.242H1084.51ZM1142.78 307.067H1095.13V278.986H1224.89V307.067H1177.24V427.897H1142.78V307.067ZM1465.8 278.986L1417.09 427.897H1380.07L1347.31 327.063L1313.49 427.897H1276.69L1227.76 278.986H1263.5L1297.11 383.649L1332.21 278.986H1364.12L1398.16 384.5L1432.83 278.986H1465.8ZM1555.29 430.45C1539.83 430.45 1525.86 427.117 1513.38 420.452C1501.04 413.786 1491.33 404.639 1484.24 393.01C1477.29 381.239 1473.81 368.049 1473.81 353.442C1473.81 338.834 1477.29 325.716 1484.24 314.087C1491.33 302.316 1501.04 293.098 1513.38 286.432C1525.86 279.766 1539.83 276.434 1555.29 276.434C1570.75 276.434 1584.64 279.766 1596.98 286.432C1609.32 293.098 1619.04 302.316 1626.13 314.087C1633.22 325.716 1636.76 338.834 1636.76 353.442C1636.76 368.049 1633.22 381.239 1626.13 393.01C1619.04 404.639 1609.32 413.786 1596.98 420.452C1584.64 427.117 1570.75 430.45 1555.29 430.45ZM1555.29 401.093C1564.08 401.093 1572.02 399.108 1579.11 395.137C1586.2 391.024 1591.74 385.351 1595.71 378.118C1599.82 370.886 1601.88 362.66 1601.88 353.442C1601.88 344.224 1599.82 335.998 1595.71 328.765C1591.74 321.532 1586.2 315.931 1579.11 311.96C1572.02 307.847 1564.08 305.79 1555.29 305.79C1546.5 305.79 1538.55 307.847 1531.46 311.96C1524.37 315.931 1518.77 321.532 1514.66 328.765C1510.69 335.998 1508.7 344.224 1508.7 353.442C1508.7 362.66 1510.69 370.886 1514.66 378.118C1518.77 385.351 1524.37 391.024 1531.46 395.137C1538.55 399.108 1546.5 401.093 1555.29 401.093ZM1757.54 427.897L1728.82 386.415H1727.12H1697.13V427.897H1662.66V278.986H1727.12C1740.31 278.986 1751.73 281.185 1761.37 285.581C1771.16 289.978 1778.67 296.218 1783.92 304.301C1789.17 312.385 1791.79 321.958 1791.79 333.02C1791.79 344.082 1789.1 353.655 1783.71 361.738C1778.46 369.68 1770.94 375.778 1761.16 380.033L1794.56 427.897H1757.54ZM1756.9 333.02C1756.9 324.652 1754.21 318.271 1748.82 313.874C1743.43 309.336 1735.56 307.067 1725.21 307.067H1697.13V358.973H1725.21C1735.56 358.973 1743.43 356.704 1748.82 352.165C1754.21 347.627 1756.9 341.245 1756.9 333.02ZM1873.34 369.397L1853.34 390.244V427.897H1819.09V278.986H1853.34V348.549L1919.29 278.986H1957.58L1895.89 345.358L1961.2 427.897H1920.99L1873.34 369.397Z" fill="black"/>
</g>
<defs>
<filter id="filter0_b_5_42" x="-4" y="-3.10278" width="1969.2" height="485.299" filterUnits="userSpaceOnUse" color-interpolation-filters="sRGB">
<feFlood flood-opacity="0" result="BackgroundImageFix"/>
<feGaussianBlur in="BackgroundImage" stdDeviation="2"/>
<feComposite in2="SourceAlpha" operator="in" result="effect1_backgroundBlur_5_42"/>
<feBlend mode="normal" in="SourceGraphic" in2="effect1_backgroundBlur_5_42" result="shape"/>
</filter>
</defs>
</svg>
