<svg width="2080" height="478" viewBox="0 0 2080 478" fill="none" xmlns="http://www.w3.org/2000/svg">
<g filter="url(#filter0_b_5_62)">
<path d="M309.171 46.4854L31.9685 357.163" stroke="white" stroke-width="14.182"/>
<path d="M613.078 111.931L31.9685 357.162" stroke="white" stroke-width="14.182"/>
<path d="M313.309 435.772L31.2169 357.539" stroke="white" stroke-width="14.182"/>
<path d="M316.695 43.4754L226.049 279.304" stroke="white" stroke-width="14.182"/>
<path d="M327.227 429.754L227.931 276.296" stroke="white" stroke-width="14.182"/>
<path d="M315.942 33.3207L613.831 89.739" stroke="white" stroke-width="14.182"/>
<path d="M315.191 29.935L590.136 249.591" stroke="white" stroke-width="14.182"/>
<path d="M634.143 134.121L589.384 250.719" stroke="white" stroke-width="14.182"/>
<path d="M320.083 27.3033L335.128 445.551" stroke="white" stroke-width="14.182"/>
<path d="M623.986 122.838L333.243 444.423" stroke="white" stroke-width="14.182"/>
<path d="M570.577 264.636L346.408 433.515" stroke="white" stroke-width="14.182"/>
<circle cx="652.571" cy="96.1328" r="58.299" fill="white"/>
<circle cx="334.558" cy="434.455" r="43.4421" fill="white"/>
<circle cx="320.646" cy="32.0044" r="31.4062" fill="white"/>
<circle cx="226.617" cy="274.603" r="31.4062" fill="white"/>
<circle cx="31.4062" cy="358.478" r="31.4062" fill="white"/>
<circle cx="589.947" cy="254.669" r="31.4062" fill="white"/>
<path d="M932.919 204.598L932.707 115.252L888.884 188.856H873.355L829.745 117.166V204.598H797.41V55.6874H825.916L881.651 148.225L936.536 55.6874H964.829L965.254 204.598H932.919ZM1115.88 176.943V204.598H1000.58V55.6874H1113.12V83.3423H1034.83V115.677H1103.97V142.481H1034.83V176.943H1115.88ZM1192.23 207.151C1180.46 207.151 1169.04 205.591 1157.98 202.471C1147.06 199.209 1138.27 195.025 1131.6 189.92L1143.3 163.967C1149.69 168.647 1157.27 172.405 1166.07 175.241C1174.86 178.078 1183.65 179.496 1192.44 179.496C1202.23 179.496 1209.46 178.078 1214.14 175.241C1218.82 172.263 1221.16 168.363 1221.16 163.541C1221.16 159.996 1219.74 157.089 1216.91 154.819C1214.21 152.408 1210.67 150.494 1206.27 149.076C1202.02 147.658 1196.2 146.097 1188.83 144.396C1177.48 141.701 1168.19 139.007 1160.96 136.312C1153.73 133.617 1147.49 129.292 1142.24 123.335C1137.13 117.379 1134.58 109.437 1134.58 99.5097C1134.58 90.8587 1136.92 83.0586 1141.6 76.1095C1146.28 69.0185 1153.3 63.4166 1162.66 59.3038C1172.16 55.191 1183.72 53.1347 1197.34 53.1347C1206.84 53.1347 1216.13 54.2692 1225.2 56.5383C1234.28 58.8074 1242.22 62.0693 1249.03 66.3239L1238.39 92.4896C1224.64 84.6895 1210.88 80.7895 1197.12 80.7895C1187.48 80.7895 1180.32 82.3495 1175.64 85.4696C1171.1 88.5896 1168.83 92.7024 1168.83 97.8079C1168.83 102.913 1171.46 106.743 1176.7 109.295C1182.09 111.706 1190.25 114.117 1201.17 116.528C1212.51 119.223 1221.8 121.917 1229.03 124.612C1236.27 127.306 1242.44 131.561 1247.54 137.376C1252.79 143.19 1255.41 151.061 1255.41 160.989C1255.41 169.498 1253 177.298 1248.18 184.389C1243.5 191.338 1236.41 196.869 1226.91 200.982C1217.4 205.095 1205.85 207.151 1192.23 207.151ZM1351.08 207.151C1335.62 207.151 1321.65 203.818 1309.17 197.153C1296.83 190.487 1287.12 181.34 1280.02 169.71C1273.07 157.939 1269.6 144.75 1269.6 130.143C1269.6 115.535 1273.07 102.417 1280.02 90.7878C1287.12 79.0168 1296.83 69.7985 1309.17 63.1329C1321.65 56.4674 1335.62 53.1347 1351.08 53.1347C1366.53 53.1347 1380.43 56.4674 1392.77 63.1329C1405.11 69.7985 1414.82 79.0168 1421.91 90.7878C1429.01 102.417 1432.55 115.535 1432.55 130.143C1432.55 144.75 1429.01 157.939 1421.91 169.71C1414.82 181.34 1405.11 190.487 1392.77 197.153C1380.43 203.818 1366.53 207.151 1351.08 207.151ZM1351.08 177.794C1359.87 177.794 1367.81 175.809 1374.9 171.838C1381.99 167.725 1387.52 162.052 1391.49 154.819C1395.61 147.587 1397.66 139.361 1397.66 130.143C1397.66 120.924 1395.61 112.699 1391.49 105.466C1387.52 98.2333 1381.99 92.6315 1374.9 88.6605C1367.81 84.5477 1359.87 82.4913 1351.08 82.4913C1342.28 82.4913 1334.34 84.5477 1327.25 88.6605C1320.16 92.6315 1314.56 98.2333 1310.44 105.466C1306.47 112.699 1304.49 120.924 1304.49 130.143C1304.49 139.361 1306.47 147.587 1310.44 154.819C1314.56 162.052 1320.16 167.725 1327.25 171.838C1334.34 175.809 1342.28 177.794 1351.08 177.794ZM1595.02 55.6874V204.598H1566.73L1492.49 114.188V204.598H1458.45V55.6874H1486.96L1560.99 146.097V55.6874H1595.02ZM1640.47 206.3C1634.65 206.3 1629.76 204.315 1625.79 200.344C1621.82 196.373 1619.83 191.409 1619.83 185.452C1619.83 179.354 1621.82 174.461 1625.79 170.774C1629.76 166.945 1634.65 165.03 1640.47 165.03C1646.28 165.03 1651.17 166.945 1655.14 170.774C1659.12 174.461 1661.1 179.354 1661.1 185.452C1661.1 191.409 1659.12 196.373 1655.14 200.344C1651.17 204.315 1646.28 206.3 1640.47 206.3ZM933.983 278.687V427.598H905.69L831.447 337.188V427.598H797.41V278.687H825.916L899.946 369.097V278.687H933.983ZM1084.51 399.943V427.598H969.215V278.687H1081.75V306.342H1003.46V338.677H1072.6V365.481H1003.46V399.943H1084.51ZM1142.78 306.768H1095.13V278.687H1224.89V306.768H1177.24V427.598H1142.78V306.768ZM1465.8 278.687L1417.09 427.598H1380.07L1347.31 326.764L1313.49 427.598H1276.69L1227.76 278.687H1263.5L1297.11 383.35L1332.21 278.687H1364.12L1398.16 384.201L1432.83 278.687H1465.8ZM1555.29 430.151C1539.83 430.151 1525.86 426.818 1513.38 420.153C1501.04 413.487 1491.33 404.34 1484.24 392.71C1477.29 380.939 1473.81 367.75 1473.81 353.143C1473.81 338.535 1477.29 325.417 1484.24 313.788C1491.33 302.017 1501.04 292.798 1513.38 286.133C1525.86 279.467 1539.83 276.135 1555.29 276.135C1570.75 276.135 1584.64 279.467 1596.98 286.133C1609.32 292.798 1619.04 302.017 1626.13 313.788C1633.22 325.417 1636.76 338.535 1636.76 353.143C1636.76 367.75 1633.22 380.939 1626.13 392.71C1619.04 404.34 1609.32 413.487 1596.98 420.153C1584.64 426.818 1570.75 430.151 1555.29 430.151ZM1555.29 400.794C1564.08 400.794 1572.02 398.809 1579.11 394.838C1586.2 390.725 1591.74 385.052 1595.71 377.819C1599.82 370.587 1601.88 362.361 1601.88 353.143C1601.88 343.924 1599.82 335.699 1595.71 328.466C1591.74 321.233 1586.2 315.631 1579.11 311.661C1572.02 307.548 1564.08 305.491 1555.29 305.491C1546.5 305.491 1538.55 307.548 1531.46 311.661C1524.37 315.631 1518.77 321.233 1514.66 328.466C1510.69 335.699 1508.7 343.924 1508.7 353.143C1508.7 362.361 1510.69 370.587 1514.66 377.819C1518.77 385.052 1524.37 390.725 1531.46 394.838C1538.55 398.809 1546.5 400.794 1555.29 400.794ZM1757.54 427.598L1728.82 386.116H1727.12H1697.13V427.598H1662.66V278.687H1727.12C1740.31 278.687 1751.73 280.886 1761.37 285.282C1771.16 289.678 1778.67 295.919 1783.92 304.002C1789.17 312.086 1791.79 321.659 1791.79 332.721C1791.79 343.783 1789.1 353.356 1783.71 361.439C1778.46 369.381 1770.94 375.479 1761.16 379.734L1794.56 427.598H1757.54ZM1756.9 332.721C1756.9 324.353 1754.21 317.971 1748.82 313.575C1743.43 309.037 1735.56 306.768 1725.21 306.768H1697.13V358.674H1725.21C1735.56 358.674 1743.43 356.405 1748.82 351.866C1754.21 347.328 1756.9 340.946 1756.9 332.721ZM1873.34 369.097L1853.34 389.945V427.598H1819.09V278.687H1853.34V348.25L1919.29 278.687H1957.58L1895.89 345.059L1961.2 427.598H1920.99L1873.34 369.097Z" fill="white"/>
</g>
<defs>
<filter id="filter0_b_5_62" x="-4" y="-3.40186" width="1969.2" height="485.299" filterUnits="userSpaceOnUse" color-interpolation-filters="sRGB">
<feFlood flood-opacity="0" result="BackgroundImageFix"/>
<feGaussianBlur in="BackgroundImage" stdDeviation="2"/>
<feComposite in2="SourceAlpha" operator="in" result="effect1_backgroundBlur_5_62"/>
<feBlend mode="normal" in="SourceGraphic" in2="effect1_backgroundBlur_5_62" result="shape"/>
</filter>
</defs>
</svg>
