<svg width="1616" height="500" viewBox="0 0 1616 500" fill="none" xmlns="http://www.w3.org/2000/svg">
<g clip-path="url(#clip0_1332_63)">
<path d="M359.039 168.282H412.47V405H359.039V168.282ZM565.483 168.282C625.677 168.282 660.17 198.041 660.17 250.457C660.17 305.579 625.677 337.366 565.483 337.366H518.477V405H465.047V168.282H565.483ZM562.777 292.728C592.536 292.728 609.445 279.201 609.445 252.148C609.445 225.771 592.536 212.582 562.777 212.582H518.477V292.728H562.777ZM865.686 243.694C849.454 225.094 826.121 212.92 804.14 212.92C763.56 212.92 732.11 244.37 732.11 285.627C732.11 326.883 763.56 358.671 804.14 358.671C825.444 358.671 848.778 347.85 865.686 330.941L897.136 365.096C872.112 390.797 835.928 407.367 801.434 407.367C730.757 407.367 677.327 354.951 677.327 286.303C677.327 217.993 731.772 166.591 803.463 166.591C837.618 166.591 873.464 181.809 896.798 205.819L865.686 243.694ZM1034.99 166.591C1107.36 166.591 1162.14 217.993 1162.14 286.641C1162.14 354.951 1107.36 407.367 1034.99 407.367C962.619 407.367 907.836 355.289 907.836 286.641C907.836 217.655 962.619 166.591 1034.99 166.591ZM1035.66 213.259C995.76 213.259 962.619 245.046 962.619 286.641C962.619 328.236 996.098 360.7 1035.66 360.7C1075.23 360.7 1107.36 328.236 1107.36 286.641C1107.36 245.046 1075.23 213.259 1035.66 213.259ZM1197.19 168.282H1250.62V358.333H1352.08V405H1197.19V168.282ZM1559.94 405L1541.34 359.009H1431.77L1413.17 405H1358.05L1460.85 168.282H1515.97L1617.09 405H1559.94ZM1449.35 316.062H1524.09L1486.89 224.08L1449.35 316.062Z" fill="white"/>
<path d="M0 457.014V126.133C0 120.171 0.758073 114.634 6.47577 111.37C8.63436 110.188 11.3326 109.211 13.6968 109.211C46.9236 109.096 80.2661 109.096 113.493 109.096H120.83V55.4909C120.83 48.6553 124.286 44.3125 130.209 41.4857C142.84 35.4083 155.251 29.228 167.869 23.2534C177.685 18.5893 187.399 13.8095 197.421 9.9035C205.092 6.97399 212.107 11.4325 214.805 19.463C216.964 26.0801 213.186 33.134 206.389 36.282C195.815 41.1645 185.575 46.4839 175.103 51.4692C166.571 55.4909 157.95 59.2812 149.097 63.2901V109.096H255.356C264.427 109.096 269.721 114.415 269.721 123.319C269.721 161.519 269.605 199.718 269.824 237.802C269.824 243.776 267.447 247.464 262.59 250.496C257.193 253.76 252.131 252.681 247.493 249.738C241.993 246.153 241.775 239.652 241.775 233.793C241.556 203.624 241.659 173.455 241.659 143.286V137.633H148.891V185.058C148.891 190.711 145.114 196.454 140.463 198.086C133.666 200.579 129.027 199.602 124.71 193.743C122.783 191.032 121.048 187.448 121.048 184.081C120.611 168.791 120.83 153.373 120.83 137.633H28.2672V285.548H120.83V232.482C120.83 224.015 126.663 217.835 134.642 217.616C142.942 217.514 148.776 223.475 148.878 232.38C148.994 249.083 148.878 265.696 148.878 282.297C148.878 283.389 148.994 284.353 149.097 285.985H254.508C264.53 285.985 269.721 291.201 269.721 301.287V455.395C269.721 466.355 264.543 471.559 253.313 471.559H18.6692C6.25734 471.559 3.34067 469.285 0 457.014Z" fill="white"/>
</g>
<defs>
<clipPath id="clip0_1332_63">
<rect width="1616" height="500" fill="white"/>
</clipPath>
</defs>
</svg>
