<svg width="937" height="937" viewBox="0 0 937 937" fill="none" xmlns="http://www.w3.org/2000/svg">
<g filter="url(#filter0_b_5_441)">
<rect width="937" height="937" fill="white"/>
<path d="M168.825 766L168.728 716.742L144.292 757.79H139.849L115.414 717.032V766H106.141V698.391H114.061L142.264 745.91L170.08 698.391H178L178.097 766H168.825ZM243.299 740.695C243.299 741.403 243.235 742.337 243.106 743.496H201.575C202.154 748.003 204.118 751.641 207.466 754.41C210.879 757.114 215.096 758.466 220.119 758.466C226.236 758.466 231.162 756.406 234.896 752.285L240.015 758.273C237.697 760.978 234.8 763.038 231.323 764.455C227.91 765.871 224.079 766.58 219.829 766.58C214.42 766.58 209.623 765.485 205.438 763.296C201.253 761.042 198.001 757.919 195.683 753.927C193.429 749.935 192.302 745.427 192.302 740.405C192.302 735.447 193.397 730.972 195.586 726.98C197.84 722.988 200.898 719.897 204.762 717.708C208.69 715.454 213.1 714.327 217.994 714.327C222.887 714.327 227.234 715.454 231.033 717.708C234.896 719.897 237.89 722.988 240.015 726.98C242.204 730.972 243.299 735.544 243.299 740.695ZM217.994 722.151C213.551 722.151 209.816 723.503 206.79 726.207C203.828 728.912 202.09 732.453 201.575 736.831H234.413C233.898 732.517 232.127 729.008 229.101 726.304C226.139 723.535 222.437 722.151 217.994 722.151ZM270.855 766.58C266.67 766.58 262.645 766.032 258.782 764.938C254.919 763.779 251.892 762.33 249.703 760.591L253.566 753.251C255.82 754.861 258.557 756.148 261.776 757.114C264.996 758.08 268.247 758.563 271.531 758.563C279.644 758.563 283.701 756.245 283.701 751.609C283.701 750.064 283.154 748.84 282.059 747.939C280.964 747.037 279.58 746.393 277.906 746.007C276.296 745.556 273.978 745.073 270.952 744.558C266.831 743.914 263.45 743.174 260.81 742.337C258.235 741.5 256.013 740.083 254.146 738.087C252.279 736.091 251.345 733.29 251.345 729.684C251.345 725.048 253.277 721.346 257.14 718.577C261.003 715.744 266.187 714.327 272.69 714.327C276.103 714.327 279.516 714.746 282.928 715.583C286.341 716.42 289.142 717.547 291.331 718.963L287.371 726.304C283.186 723.599 278.26 722.247 272.594 722.247C268.666 722.247 265.672 722.891 263.611 724.179C261.551 725.467 260.521 727.173 260.521 729.298C260.521 730.972 261.1 732.292 262.259 733.258C263.418 734.224 264.835 734.932 266.509 735.383C268.247 735.833 270.662 736.349 273.753 736.928C277.874 737.636 281.19 738.409 283.701 739.246C286.276 740.019 288.466 741.371 290.269 743.303C292.071 745.234 292.973 747.939 292.973 751.416C292.973 756.052 290.977 759.754 286.985 762.523C283.057 765.227 277.68 766.58 270.855 766.58ZM326.486 766.58C321.399 766.58 316.827 765.453 312.771 763.199C308.714 760.945 305.527 757.855 303.209 753.927C300.955 749.935 299.828 745.427 299.828 740.405C299.828 735.383 300.955 730.908 303.209 726.98C305.527 722.988 308.714 719.897 312.771 717.708C316.827 715.454 321.399 714.327 326.486 714.327C331.572 714.327 336.112 715.454 340.104 717.708C344.161 719.897 347.316 722.988 349.569 726.98C351.887 730.908 353.046 735.383 353.046 740.405C353.046 745.427 351.887 749.935 349.569 753.927C347.316 757.855 344.161 760.945 340.104 763.199C336.112 765.453 331.572 766.58 326.486 766.58ZM326.486 758.466C329.769 758.466 332.699 757.726 335.275 756.245C337.915 754.7 339.975 752.575 341.456 749.87C342.937 747.102 343.678 743.947 343.678 740.405C343.678 736.864 342.937 733.741 341.456 731.036C339.975 728.268 337.915 726.143 335.275 724.662C332.699 723.181 329.769 722.44 326.486 722.44C323.202 722.44 320.24 723.181 317.6 724.662C315.024 726.143 312.964 728.268 311.418 731.036C309.937 733.741 309.197 736.864 309.197 740.405C309.197 743.947 309.937 747.102 311.418 749.87C312.964 752.575 315.024 754.7 317.6 756.245C320.24 757.726 323.202 758.466 326.486 758.466ZM393.203 714.327C399.706 714.327 404.857 716.227 408.656 720.026C412.52 723.76 414.451 729.266 414.451 736.542V766H405.179V737.604C405.179 732.646 403.988 728.912 401.606 726.4C399.223 723.889 395.811 722.634 391.368 722.634C386.345 722.634 382.385 724.114 379.488 727.076C376.59 729.974 375.142 734.159 375.142 739.632V766H365.869V714.81H374.755V722.537C376.622 719.897 379.134 717.869 382.289 716.452C385.508 715.036 389.146 714.327 393.203 714.327ZM433.833 766.58C432.03 766.58 430.484 765.968 429.196 764.744C427.909 763.457 427.265 761.847 427.265 759.915C427.265 758.048 427.909 756.503 429.196 755.279C430.484 753.991 432.03 753.347 433.833 753.347C435.635 753.347 437.149 753.959 438.372 755.183C439.595 756.406 440.207 757.983 440.207 759.915C440.207 761.847 439.563 763.457 438.275 764.744C437.052 765.968 435.571 766.58 433.833 766.58ZM512.99 698.391V766H505.07L464.504 715.583V766H454.846V698.391H462.766L503.331 748.808V698.391H512.99ZM578.138 740.695C578.138 741.403 578.074 742.337 577.945 743.496H536.414C536.993 748.003 538.957 751.641 542.305 754.41C545.718 757.114 549.935 758.466 554.958 758.466C561.075 758.466 566.001 756.406 569.735 752.285L574.854 758.273C572.536 760.978 569.639 763.038 566.162 764.455C562.749 765.871 558.918 766.58 554.668 766.58C549.259 766.58 544.462 765.485 540.277 763.296C536.092 761.042 532.84 757.919 530.522 753.927C528.268 749.935 527.142 745.427 527.142 740.405C527.142 735.447 528.236 730.972 530.425 726.98C532.679 722.988 535.738 719.897 539.601 717.708C543.529 715.454 547.939 714.327 552.833 714.327C557.727 714.327 562.073 715.454 565.872 717.708C569.735 719.897 572.729 722.988 574.854 726.98C577.044 730.972 578.138 735.544 578.138 740.695ZM552.833 722.151C548.39 722.151 544.656 723.503 541.629 726.207C538.667 728.912 536.929 732.453 536.414 736.831H569.252C568.737 732.517 566.967 729.008 563.94 726.304C560.978 723.535 557.276 722.151 552.833 722.151ZM619.796 763.006C618.443 764.165 616.769 765.066 614.773 765.71C612.777 766.29 610.717 766.58 608.592 766.58C603.441 766.58 599.448 765.195 596.615 762.426C593.782 759.658 592.366 755.698 592.366 750.546V722.44H583.673V714.81H592.366V703.606H601.638V714.81H616.319V722.44H601.638V750.16C601.638 752.929 602.314 755.054 603.666 756.535C605.083 758.016 607.079 758.756 609.654 758.756C612.487 758.756 614.902 757.951 616.898 756.342L619.796 763.006ZM707.523 714.81L688.399 766H679.514L664.736 727.173L649.765 766H640.88L621.853 714.81H630.642L645.516 755.569L660.969 714.81H668.793L683.956 755.762L699.217 714.81H707.523ZM737.442 766.58C732.355 766.58 727.783 765.453 723.727 763.199C719.67 760.945 716.483 757.855 714.165 753.927C711.911 749.935 710.784 745.427 710.784 740.405C710.784 735.383 711.911 730.908 714.165 726.98C716.483 722.988 719.67 719.897 723.727 717.708C727.783 715.454 732.355 714.327 737.442 714.327C742.528 714.327 747.068 715.454 751.06 717.708C755.117 719.897 758.272 722.988 760.525 726.98C762.843 730.908 764.002 735.383 764.002 740.405C764.002 745.427 762.843 749.935 760.525 753.927C758.272 757.855 755.117 760.945 751.06 763.199C747.068 765.453 742.528 766.58 737.442 766.58ZM737.442 758.466C740.725 758.466 743.655 757.726 746.231 756.245C748.871 754.7 750.931 752.575 752.412 749.87C753.893 747.102 754.634 743.947 754.634 740.405C754.634 736.864 753.893 733.741 752.412 731.036C750.931 728.268 748.871 726.143 746.231 724.662C743.655 723.181 740.725 722.44 737.442 722.44C734.158 722.44 731.196 723.181 728.556 724.662C725.98 726.143 723.92 728.268 722.374 731.036C720.893 733.741 720.153 736.864 720.153 740.405C720.153 743.947 720.893 747.102 722.374 749.87C723.92 752.575 725.98 754.7 728.556 756.245C731.196 757.726 734.158 758.466 737.442 758.466ZM785.711 723.406C787.321 720.444 789.703 718.191 792.859 716.645C796.014 715.1 799.845 714.327 804.352 714.327V723.31C803.837 723.245 803.129 723.213 802.227 723.213C797.205 723.213 793.245 724.726 790.347 727.753C787.514 730.714 786.098 734.964 786.098 740.502V766H776.826V714.81H785.711V723.406ZM835.676 742.144L825.052 751.995V766H815.78V694.334H825.052V740.308L852.965 714.81H864.169L842.631 735.962L866.294 766H854.897L835.676 742.144Z" fill="#CFD8DD"/>
<path d="M439.171 213.888L161.969 524.565" stroke="#CFD8DD" stroke-width="14.182"/>
<path d="M743.078 279.332L161.969 524.564" stroke="#CFD8DD" stroke-width="14.182"/>
<path d="M443.309 603.174L161.217 524.94" stroke="#CFD8DD" stroke-width="14.182"/>
<path d="M446.694 210.877L356.049 446.706" stroke="#CFD8DD" stroke-width="14.182"/>
<path d="M457.226 597.156L357.93 443.698" stroke="#CFD8DD" stroke-width="14.182"/>
<path d="M445.941 200.723L743.83 257.141" stroke="#CFD8DD" stroke-width="14.182"/>
<path d="M445.191 197.337L720.137 416.992" stroke="#CFD8DD" stroke-width="14.182"/>
<path d="M764.143 301.523L719.385 418.121" stroke="#CFD8DD" stroke-width="14.182"/>
<path d="M450.084 194.705L465.129 612.953" stroke="#CFD8DD" stroke-width="14.182"/>
<path d="M753.985 290.24L463.242 611.825" stroke="#CFD8DD" stroke-width="14.182"/>
<path d="M700.577 432.038L476.408 600.917" stroke="#CFD8DD" stroke-width="14.182"/>
<circle cx="782.57" cy="263.534" r="58.299" fill="#FFC107"/>
<circle cx="464.557" cy="601.857" r="43.4421" fill="#2196F4"/>
<circle cx="450.646" cy="199.406" r="31.4062" fill="#F34335"/>
<circle cx="356.617" cy="442.005" r="31.4062" fill="#9C27AF"/>
<circle cx="161.406" cy="525.88" r="31.4062" fill="#F34335"/>
<circle cx="719.947" cy="422.071" r="31.4062" fill="#8BC349"/>
</g>
<defs>
<filter id="filter0_b_5_441" x="-4" y="-4" width="945" height="945" filterUnits="userSpaceOnUse" color-interpolation-filters="sRGB">
<feFlood flood-opacity="0" result="BackgroundImageFix"/>
<feGaussianBlur in="BackgroundImage" stdDeviation="2"/>
<feComposite in2="SourceAlpha" operator="in" result="effect1_backgroundBlur_5_441"/>
<feBlend mode="normal" in="SourceGraphic" in2="effect1_backgroundBlur_5_441" result="shape"/>
</filter>
</defs>
</svg>
