<svg width="991" height="991" viewBox="0 0 991 991" fill="none" xmlns="http://www.w3.org/2000/svg">
<g clip-path="url(#clip0_905_81)">
<rect x="306.254" y="117.427" width="419.078" height="83.8155" fill="#FFD900"/>
<line x1="283.396" y1="502.216" x2="283.396" y2="104.092" stroke="black" stroke-width="45.7176"/>
<line x1="603.419" y1="96.474" x2="298.635" y2="96.474" stroke="black" stroke-width="45.7176"/>
<line x1="580.56" y1="286.964" x2="580.56" y2="114.571" stroke="black" stroke-width="45.7176"/>
<line x1="614.847" y1="73.6152" x2="614.847" y2="17.4207" stroke="black" stroke-width="53.3371"/>
<line x1="367.212" y1="371.731" x2="367.212" y2="286.963" stroke="black" stroke-width="45.7176"/>
<line x1="367.212" y1="456.499" x2="367.212" y2="371.731" stroke="black" stroke-width="45.7176"/>
<line x1="390.07" y1="386.018" x2="679.64" y2="386.018" stroke="black" stroke-width="45.7176"/>
<line x1="428.168" y1="347.921" x2="550.085" y2="347.921" stroke="black" stroke-width="45.7176"/>
<line x1="473.886" y1="309.822" x2="550.082" y2="309.822" stroke="black" stroke-width="45.7176"/>
<line x1="527.223" y1="386.018" x2="641.517" y2="386.018" stroke="#FFD900" stroke-width="45.7176"/>
<line x1="527.223" y1="386.018" x2="641.517" y2="386.018" stroke="#FFD900" stroke-width="45.7176"/>
<line x1="618.657" y1="412.694" x2="618.657" y2="286.964" stroke="black" stroke-width="45.7176"/>
<path d="M572.94 408.891V286.963" stroke="#FFD900" stroke-width="45.7176"/>
<line x1="237.678" y1="584.128" x2="237.678" y2="453.642" stroke="black" stroke-width="45.7176"/>
<line x1="170.054" y1="561.269" x2="215.771" y2="561.269" stroke="black" stroke-width="45.7176"/>
<line x1="115.764" y1="713.66" x2="115.764" y2="629.845" stroke="black" stroke-width="45.7176"/>
<line x1="199.58" y1="797.475" x2="199.58" y2="713.659" stroke="black" stroke-width="45.7176"/>
<line x1="153.863" y1="759.379" x2="153.863" y2="675.563" stroke="black" stroke-width="45.7176"/>
<line x1="92.9062" y1="606.986" x2="176.722" y2="606.986" stroke="black" stroke-width="45.7176"/>
<line x1="176.722" y1="774.616" x2="260.537" y2="774.616" stroke="black" stroke-width="45.7176"/>
<line x1="336.732" y1="949.867" x2="435.787" y2="949.867" stroke="black" stroke-width="45.7176"/>
<line x1="551.986" y1="949.867" x2="651.041" y2="949.867" stroke="black" stroke-width="45.7176"/>
<line x1="519.603" y1="561.269" x2="854.865" y2="561.269" stroke="black" stroke-width="45.7176"/>
<line x1="519.603" y1="431.735" x2="854.865" y2="431.735" stroke="black" stroke-width="45.7176"/>
<line x1="633.897" y1="858.433" x2="732.952" y2="858.433" stroke="black" stroke-width="45.7176"/>
<line x1="390.07" y1="858.433" x2="557.701" y2="858.433" stroke="black" stroke-width="45.7176"/>
<line x1="138.623" y1="736.52" x2="222.439" y2="736.52" stroke="black" stroke-width="45.7176"/>
<line x1="92.9062" y1="690.801" x2="176.722" y2="690.801" stroke="black" stroke-width="45.7176"/>
<line x1="328.161" y1="501.264" x2="328.161" y2="286.963" stroke="#FFD900" stroke-width="45.7176"/>
<line x1="283.396" y1="797.475" x2="283.396" y2="501.263" stroke="#FFD900" stroke-width="45.7176"/>
<line x1="306.254" y1="812.714" x2="725.332" y2="812.714" stroke="#171717" stroke-width="45.7176"/>
<line x1="306.254" y1="812.714" x2="725.332" y2="812.714" stroke="#FFD900" stroke-width="45.7176"/>
<line x1="298.635" y1="858.433" x2="390.07" y2="858.433" stroke="#FFD900" stroke-width="45.7176"/>
<line x1="538.652" y1="858.433" x2="630.087" y2="858.433" stroke="#FFD900" stroke-width="45.7176"/>
<line x1="351.972" y1="774.616" x2="771.049" y2="774.616" stroke="#FFD900" stroke-width="45.7176"/>
<line x1="218.629" y1="728.899" x2="763.43" y2="728.899" stroke="#FFD900" stroke-width="45.7176"/>
<line x1="176.722" y1="690.801" x2="763.43" y2="690.801" stroke="#FFD900" stroke-width="45.7176"/>
<line x1="134.814" y1="652.704" x2="763.43" y2="652.704" stroke="#FFD900" stroke-width="45.7176"/>
<line x1="176.722" y1="606.986" x2="725.332" y2="606.986" stroke="#FFD900" stroke-width="45.7176"/>
<line x1="260.537" y1="571.745" x2="519.61" y2="571.745" stroke="#FFD900" stroke-width="45.7176"/>
<line x1="260.537" y1="527.933" x2="519.61" y2="527.933" stroke="#FFD900" stroke-width="45.7176"/>
<line x1="260.537" y1="523.171" x2="519.61" y2="523.171" stroke="#FFD900" stroke-width="45.7176"/>
<line x1="306.254" y1="478.405" x2="565.328" y2="478.405" stroke="#FFD900" stroke-width="45.7176"/>
<line x1="390.07" y1="432.688" x2="519.603" y2="432.688" stroke="#FFD900" stroke-width="47.6225"/>
<line x1="390.07" y1="432.688" x2="519.603" y2="432.688" stroke="#FFD900" stroke-width="47.6225"/>
<line x1="641.516" y1="12.6578" x2="772.001" y2="12.6578" stroke="black" stroke-width="45.7176"/>
<line x1="710.093" y1="117.427" x2="710.093" y2="35.5162" stroke="black" stroke-width="45.7176"/>
<line x1="748.191" y1="454.594" x2="748.191" y2="111.712" stroke="black" stroke-width="45.7176"/>
<line x1="176.722" y1="264.105" x2="854.865" y2="264.105" stroke="black" stroke-width="45.7176"/>
<line x1="687.234" y1="96.474" x2="603.418" y2="96.474" stroke="#FFD900" stroke-width="45.7176"/>
<line x1="664.375" y1="119.332" x2="664.375" y2="35.5165" stroke="#FFD900" stroke-width="45.7176"/>
<rect x="306.254" y="157.43" width="419.078" height="83.8155" fill="#FFD900"/>
<line x1="283.396" y1="881.292" x2="283.396" y2="797.477" stroke="black" stroke-width="45.7176"/>
<line x1="321.494" y1="927.09" x2="321.494" y2="835.575" stroke="black" stroke-width="45.7176"/>
<line x1="458.647" y1="927.09" x2="458.647" y2="835.575" stroke="black" stroke-width="45.7176"/>
<line x1="534.842" y1="927.09" x2="534.842" y2="835.575" stroke="black" stroke-width="45.7176"/>
<line x1="664.375" y1="927.09" x2="664.375" y2="835.575" stroke="black" stroke-width="45.7176"/>
<line x1="748.191" y1="843.275" x2="748.191" y2="751.761" stroke="black" stroke-width="45.7176"/>
<line x1="877.724" y1="546.029" x2="877.724" y2="446.975" stroke="black" stroke-width="45.7176"/>
<line x1="496.744" y1="546.029" x2="496.744" y2="446.975" stroke="black" stroke-width="45.7176"/>
<line x1="793.908" y1="370.779" x2="793.908" y2="286.964" stroke="black" stroke-width="45.7176"/>
<line x1="702.473" y1="408.877" x2="702.473" y2="325.061" stroke="black" stroke-width="45.7176"/>
<line x1="664.375" y1="454.594" x2="664.375" y2="370.778" stroke="black" stroke-width="45.7176"/>
<line x1="329.113" y1="550.792" x2="329.113" y2="501.264" stroke="black" stroke-width="45.7176"/>
<line x1="390.07" y1="306.013" x2="473.891" y2="306.013" stroke="white" stroke-width="38.098"/>
<line x1="409.119" y1="363.159" x2="409.119" y2="286.963" stroke="white" stroke-width="38.098"/>
<line x1="641.516" y1="306.013" x2="725.337" y2="306.013" stroke="white" stroke-width="38.098"/>
<line x1="660.566" y1="363.159" x2="660.566" y2="286.963" stroke="white" stroke-width="38.098"/>
<line x1="329.113" y1="789.856" x2="329.113" y2="740.329" stroke="black" stroke-width="45.7176"/>
<line x1="367.212" y1="751.758" x2="367.212" y2="652.703" stroke="black" stroke-width="45.7176"/>
<line x1="748.191" y1="629.926" x2="748.191" y2="538.411" stroke="black" stroke-width="45.7176"/>
<line x1="786.289" y1="759.379" x2="786.289" y2="622.226" stroke="black" stroke-width="45.7176"/>
<line x1="626.278" y1="927.09" x2="626.278" y2="835.575" stroke="black" stroke-width="45.7176"/>
<line x1="336.732" y1="904.15" x2="435.787" y2="904.15" stroke="#F74402" stroke-width="45.7176"/>
<line x1="551.986" y1="904.15" x2="651.041" y2="904.15" stroke="#F74402" stroke-width="45.7176"/>
<line x1="519.603" y1="496.501" x2="854.865" y2="496.501" stroke="#F74402" stroke-width="83.8155"/>
</g>
<defs>
<clipPath id="clip0_905_81">
<rect width="807.123" height="956.59" fill="white" transform="translate(92.9062 17.4199)"/>
</clipPath>
</defs>
</svg>
