<svg width="3111" height="599" viewBox="0 0 3111 599" fill="none" xmlns="http://www.w3.org/2000/svg">
<g clip-path="url(#clip0_905_2)">
<g clip-path="url(#clip1_905_2)">
<rect x="149.341" y="92.2324" width="229.617" height="45.9233" fill="#FFD900"/>
<line x1="136.817" y1="303.062" x2="136.817" y2="84.9263" stroke="black" stroke-width="25.0491"/>
<line x1="312.16" y1="80.7516" x2="145.167" y2="80.7516" stroke="black" stroke-width="25.0491"/>
<line x1="299.636" y1="185.123" x2="299.636" y2="90.6671" stroke="black" stroke-width="25.0491"/>
<line x1="318.423" y1="68.2271" x2="318.423" y2="37.4376" stroke="black" stroke-width="29.2239"/>
<line x1="182.74" y1="231.568" x2="182.74" y2="185.123" stroke="black" stroke-width="25.0491"/>
<line x1="182.74" y1="278.012" x2="182.74" y2="231.567" stroke="black" stroke-width="25.0491"/>
<line x1="195.265" y1="239.396" x2="353.923" y2="239.396" stroke="black" stroke-width="25.0491"/>
<line x1="216.139" y1="218.522" x2="282.938" y2="218.522" stroke="black" stroke-width="25.0491"/>
<line x1="241.188" y1="197.647" x2="282.937" y2="197.647" stroke="black" stroke-width="25.0491"/>
<line x1="270.412" y1="239.396" x2="333.035" y2="239.396" stroke="#FFD900" stroke-width="25.0491"/>
<line x1="270.412" y1="239.396" x2="333.035" y2="239.396" stroke="#FFD900" stroke-width="25.0491"/>
<line x1="320.51" y1="254.012" x2="320.51" y2="185.123" stroke="black" stroke-width="25.0491"/>
<path d="M295.461 251.928V185.123" stroke="#FFD900" stroke-width="25.0491"/>
<line x1="111.768" y1="347.942" x2="111.768" y2="276.448" stroke="black" stroke-width="25.0491"/>
<line x1="74.7157" y1="335.417" x2="99.7648" y2="335.417" stroke="black" stroke-width="25.0491"/>
<line x1="44.9701" y1="418.914" x2="44.9701" y2="372.99" stroke="black" stroke-width="25.0491"/>
<line x1="90.8932" y1="464.838" x2="90.8932" y2="418.915" stroke="black" stroke-width="25.0491"/>
<line x1="65.8447" y1="443.963" x2="65.8447" y2="398.04" stroke="black" stroke-width="25.0491"/>
<line x1="32.4458" y1="360.466" x2="78.3691" y2="360.466" stroke="black" stroke-width="25.0491"/>
<line x1="78.3693" y1="452.313" x2="124.293" y2="452.313" stroke="black" stroke-width="25.0491"/>
<line x1="166.041" y1="548.335" x2="220.314" y2="548.335" stroke="black" stroke-width="25.0491"/>
<line x1="283.98" y1="548.335" x2="338.253" y2="548.335" stroke="black" stroke-width="25.0491"/>
<line x1="266.237" y1="335.417" x2="449.93" y2="335.417" stroke="black" stroke-width="25.0491"/>
<line x1="266.237" y1="264.445" x2="449.93" y2="264.445" stroke="black" stroke-width="25.0491"/>
<line x1="328.86" y1="498.237" x2="383.133" y2="498.237" stroke="black" stroke-width="25.0491"/>
<line x1="195.265" y1="498.237" x2="287.111" y2="498.237" stroke="black" stroke-width="25.0491"/>
<line x1="57.4946" y1="431.439" x2="103.418" y2="431.439" stroke="black" stroke-width="25.0491"/>
<line x1="32.4458" y1="406.389" x2="78.3691" y2="406.389" stroke="black" stroke-width="25.0491"/>
<line x1="161.344" y1="302.541" x2="161.344" y2="185.123" stroke="#FFD900" stroke-width="25.0491"/>
<line x1="136.817" y1="464.838" x2="136.817" y2="302.541" stroke="#FFD900" stroke-width="25.0491"/>
<line x1="149.341" y1="473.187" x2="378.958" y2="473.187" stroke="#171717" stroke-width="25.0491"/>
<line x1="149.341" y1="473.187" x2="378.958" y2="473.187" stroke="#FFD900" stroke-width="25.0491"/>
<line x1="145.167" y1="498.237" x2="195.265" y2="498.237" stroke="#FFD900" stroke-width="25.0491"/>
<line x1="276.674" y1="498.237" x2="326.773" y2="498.237" stroke="#FFD900" stroke-width="25.0491"/>
<line x1="174.391" y1="452.313" x2="404.007" y2="452.313" stroke="#FFD900" stroke-width="25.0491"/>
<line x1="101.331" y1="427.264" x2="399.832" y2="427.264" stroke="#FFD900" stroke-width="25.0491"/>
<line x1="78.3693" y1="406.389" x2="399.832" y2="406.389" stroke="#FFD900" stroke-width="25.0491"/>
<line x1="55.4073" y1="385.516" x2="399.832" y2="385.516" stroke="#FFD900" stroke-width="25.0491"/>
<line x1="78.3693" y1="360.466" x2="378.958" y2="360.466" stroke="#FFD900" stroke-width="25.0491"/>
<line x1="124.292" y1="341.158" x2="266.241" y2="341.158" stroke="#FFD900" stroke-width="25.0491"/>
<line x1="124.292" y1="317.152" x2="266.241" y2="317.152" stroke="#FFD900" stroke-width="25.0491"/>
<line x1="124.292" y1="314.543" x2="266.241" y2="314.543" stroke="#FFD900" stroke-width="25.0491"/>
<line x1="149.341" y1="290.016" x2="291.29" y2="290.016" stroke="#FFD900" stroke-width="25.0491"/>
<line x1="195.265" y1="264.966" x2="266.237" y2="264.966" stroke="#FFD900" stroke-width="26.0928"/>
<line x1="195.265" y1="264.966" x2="266.237" y2="264.966" stroke="#FFD900" stroke-width="26.0928"/>
<line x1="333.035" y1="34.828" x2="404.529" y2="34.828" stroke="black" stroke-width="25.0491"/>
<line x1="370.608" y1="92.2324" x2="370.608" y2="47.3528" stroke="black" stroke-width="25.0491"/>
<line x1="391.483" y1="276.969" x2="391.483" y2="89.1011" stroke="black" stroke-width="25.0491"/>
<line x1="78.3693" y1="172.599" x2="449.931" y2="172.599" stroke="black" stroke-width="25.0491"/>
<line x1="358.084" y1="80.7516" x2="312.161" y2="80.7516" stroke="#FFD900" stroke-width="25.0491"/>
<line x1="345.559" y1="93.2759" x2="345.559" y2="47.3526" stroke="#FFD900" stroke-width="25.0491"/>
<rect x="149.341" y="114.15" width="229.617" height="45.9233" fill="#FFD900"/>
<line x1="136.817" y1="510.761" x2="136.817" y2="464.838" stroke="black" stroke-width="25.0491"/>
<line x1="157.692" y1="535.854" x2="157.692" y2="485.713" stroke="black" stroke-width="25.0491"/>
<line x1="232.838" y1="535.854" x2="232.838" y2="485.713" stroke="black" stroke-width="25.0491"/>
<line x1="274.587" y1="535.854" x2="274.587" y2="485.713" stroke="black" stroke-width="25.0491"/>
<line x1="345.559" y1="535.854" x2="345.559" y2="485.713" stroke="black" stroke-width="25.0491"/>
<line x1="391.483" y1="489.932" x2="391.483" y2="439.79" stroke="black" stroke-width="25.0491"/>
<line x1="462.455" y1="327.067" x2="462.455" y2="272.794" stroke="black" stroke-width="25.0491"/>
<line x1="253.713" y1="327.067" x2="253.713" y2="272.794" stroke="black" stroke-width="25.0491"/>
<line x1="416.531" y1="231.046" x2="416.531" y2="185.123" stroke="black" stroke-width="25.0491"/>
<line x1="366.433" y1="251.921" x2="366.433" y2="205.998" stroke="black" stroke-width="25.0491"/>
<line x1="345.559" y1="276.969" x2="345.559" y2="231.046" stroke="black" stroke-width="25.0491"/>
<line x1="161.866" y1="329.677" x2="161.866" y2="302.54" stroke="black" stroke-width="25.0491"/>
<line x1="195.265" y1="195.559" x2="241.191" y2="195.559" stroke="white" stroke-width="20.8742"/>
<line x1="205.702" y1="226.871" x2="205.702" y2="185.123" stroke="white" stroke-width="20.8742"/>
<line x1="333.035" y1="195.559" x2="378.961" y2="195.559" stroke="white" stroke-width="20.8742"/>
<line x1="343.472" y1="226.871" x2="343.472" y2="185.123" stroke="white" stroke-width="20.8742"/>
<line x1="161.866" y1="460.663" x2="161.866" y2="433.527" stroke="black" stroke-width="25.0491"/>
<line x1="182.74" y1="439.788" x2="182.74" y2="385.515" stroke="black" stroke-width="25.0491"/>
<line x1="391.483" y1="373.036" x2="391.483" y2="322.894" stroke="black" stroke-width="25.0491"/>
<line x1="412.357" y1="443.963" x2="412.357" y2="368.816" stroke="black" stroke-width="25.0491"/>
<line x1="324.685" y1="535.854" x2="324.685" y2="485.713" stroke="black" stroke-width="25.0491"/>
<line x1="166.041" y1="523.285" x2="220.314" y2="523.285" stroke="#F74402" stroke-width="25.0491"/>
<line x1="283.98" y1="523.285" x2="338.253" y2="523.285" stroke="#F74402" stroke-width="25.0491"/>
<line x1="266.237" y1="299.931" x2="449.93" y2="299.931" stroke="#F74402" stroke-width="45.9233"/>
</g>
<path d="M565.828 474.612H724.109V429.388H769.333V338.942H746.721V293.719H651.752V361.554H701.498V406.777H588.44V225.884H746.721V158.049H565.828V203.272H520.605V429.388H565.828V474.612ZM837.256 203.272V474.612H905.09V361.554H995.537V474.612H1063.37V203.272H1018.15V158.049H882.479V203.272H837.256ZM905.09 293.719V225.884H995.537V293.719H905.09ZM1176.61 474.612H1334.89V429.388H1380.11V338.942H1357.5V293.719H1262.53V361.554H1312.28V406.777H1199.22V225.884H1357.5V158.049H1176.61V203.272H1131.38V429.388H1176.61V474.612ZM1448.03 203.272V474.612H1515.87V361.554H1606.32V474.612H1674.15V203.272H1628.93V158.049H1493.26V203.272H1448.03ZM1515.87 293.719V225.884H1606.32V293.719H1515.87ZM1900.27 158.049V474.612H1968.1V271.107H1990.71V338.942H2035.94V384.165H2081.16V452H2126.38V474.612H2194.22V158.049H2126.38V361.554H2103.77V293.719H2058.55V248.496H2013.32V180.661H1968.1V158.049H1900.27ZM2307.19 474.612H2465.47V429.388H2510.69V203.272H2465.47V158.049H2307.19V203.272H2261.96V429.388H2307.19V474.612ZM2329.8 406.777V225.884H2442.86V406.777H2329.8ZM2578.61 474.612H2782.12V429.388H2827.34V203.272H2782.12V158.049H2578.61V474.612ZM2646.45 406.777V225.884H2759.51V406.777H2646.45ZM2895.26 474.612H3076.16V406.777H2963.1V338.942H3076.16V271.107H2963.1V225.884H3076.16V158.049H2895.26V474.612Z" fill="black"/>
</g>
<defs>
<clipPath id="clip0_905_2">
<rect width="3111" height="599" fill="white"/>
</clipPath>
<clipPath id="clip1_905_2">
<rect width="442.23" height="524.125" fill="white" transform="translate(32.4458 37.4375)"/>
</clipPath>
</defs>
</svg>
